<svg width="141" height="49" viewBox="0 0 141 49" fill="none" xmlns="http://www.w3.org/2000/svg">
<rect width="141" height="49" rx="5" fill="#F0A83E"/>
<path d="M32.9688 26.3906C32.8281 27.5938 32.3828 28.5234 31.6328 29.1797C30.888 29.8307 29.8958 30.1562 28.6562 30.1562C27.3125 30.1562 26.2344 29.6745 25.4219 28.7109C24.6146 27.7474 24.2109 26.4583 24.2109 24.8438V23.75C24.2109 22.6927 24.3984 21.763 24.7734 20.9609C25.1536 20.1589 25.6901 19.5443 26.3828 19.1172C27.0755 18.6849 27.8776 18.4688 28.7891 18.4688C29.9974 18.4688 30.9661 18.8073 31.6953 19.4844C32.4245 20.1562 32.849 21.0885 32.9688 22.2812H31.4609C31.3307 21.375 31.0469 20.7188 30.6094 20.3125C30.1771 19.9062 29.5703 19.7031 28.7891 19.7031C27.8307 19.7031 27.0781 20.0573 26.5312 20.7656C25.9896 21.474 25.7188 22.4818 25.7188 23.7891V24.8906C25.7188 26.125 25.9766 27.1068 26.4922 27.8359C27.0078 28.5651 27.7292 28.9297 28.6562 28.9297C29.4896 28.9297 30.1276 28.7422 30.5703 28.3672C31.0182 27.987 31.3151 27.3281 31.4609 26.3906H32.9688ZM43.7734 24.6797C43.7734 25.7943 43.5859 26.7682 43.2109 27.6016C42.8359 28.4297 42.3047 29.0625 41.6172 29.5C40.9297 29.9375 40.1276 30.1562 39.2109 30.1562C38.3151 30.1562 37.5208 29.9375 36.8281 29.5C36.1354 29.0573 35.5964 28.4297 35.2109 27.6172C34.8307 26.7995 34.6354 25.8542 34.625 24.7812V23.9609C34.625 22.8672 34.8151 21.901 35.1953 21.0625C35.5755 20.224 36.112 19.5833 36.8047 19.1406C37.5026 18.6927 38.2995 18.4688 39.1953 18.4688C40.1068 18.4688 40.9089 18.6901 41.6016 19.1328C42.2995 19.5703 42.8359 20.2083 43.2109 21.0469C43.5859 21.8802 43.7734 22.8516 43.7734 23.9609V24.6797ZM42.2812 23.9453C42.2812 22.5964 42.0104 21.5625 41.4688 20.8438C40.9271 20.1198 40.1693 19.7578 39.1953 19.7578C38.2474 19.7578 37.5 20.1198 36.9531 20.8438C36.4115 21.5625 36.1328 22.5625 36.1172 23.8438V24.6797C36.1172 25.987 36.3906 27.0156 36.9375 27.7656C37.4896 28.5104 38.2474 28.8828 39.2109 28.8828C40.1797 28.8828 40.9297 28.5312 41.4609 27.8281C41.9922 27.1198 42.2656 26.1068 42.2812 24.7891V23.9453ZM47.9609 18.625L51.6797 27.9062L55.3984 18.625H57.3438V30H55.8438V25.5703L55.9844 20.7891L52.25 30H51.1016L47.375 20.8125L47.5234 25.5703V30H46.0234V18.625H47.9609ZM66.4219 24.7422H61.4922V28.7734H67.2188V30H59.9922V18.625H67.1406V19.8594H61.4922V23.5156H66.4219V24.7422ZM69.0859 30V18.625H72.2969C73.2865 18.625 74.1615 18.8438 74.9219 19.2812C75.6823 19.7188 76.2682 20.3411 76.6797 21.1484C77.0964 21.9557 77.3073 22.8828 77.3125 23.9297V24.6562C77.3125 25.7292 77.1042 26.6693 76.6875 27.4766C76.276 28.2839 75.6849 28.9036 74.9141 29.3359C74.1484 29.7682 73.2552 29.9896 72.2344 30H69.0859ZM70.5859 19.8594V28.7734H72.1641C73.3203 28.7734 74.2188 28.4141 74.8594 27.6953C75.5052 26.9766 75.8281 25.9531 75.8281 24.625V23.9609C75.8281 22.6693 75.5234 21.6667 74.9141 20.9531C74.3099 20.2344 73.4505 19.8698 72.3359 19.8594H70.5859ZM86.0156 24.7422H81.0859V28.7734H86.8125V30H79.5859V18.625H86.7344V19.8594H81.0859V23.5156H86.0156V24.7422ZM92.8516 25.3984H90.1797V30H88.6719V18.625H92.4375C93.7188 18.625 94.7031 18.9167 95.3906 19.5C96.0833 20.0833 96.4297 20.9323 96.4297 22.0469C96.4297 22.7552 96.237 23.3724 95.8516 23.8984C95.4714 24.4245 94.9401 24.8177 94.2578 25.0781L96.9297 29.9062V30H95.3203L92.8516 25.3984ZM90.1797 24.1719H92.4844C93.2292 24.1719 93.8203 23.9792 94.2578 23.5938C94.7005 23.2083 94.9219 22.6927 94.9219 22.0469C94.9219 21.3438 94.7109 20.8047 94.2891 20.4297C93.8724 20.0547 93.2682 19.8646 92.4766 19.8594H90.1797V24.1719ZM107.289 24.6797C107.289 25.7943 107.102 26.7682 106.727 27.6016C106.352 28.4297 105.82 29.0625 105.133 29.5C104.445 29.9375 103.643 30.1562 102.727 30.1562C101.831 30.1562 101.036 29.9375 100.344 29.5C99.651 29.0573 99.112 28.4297 98.7266 27.6172C98.3464 26.7995 98.151 25.8542 98.1406 24.7812V23.9609C98.1406 22.8672 98.3307 21.901 98.7109 21.0625C99.0911 20.224 99.6276 19.5833 100.32 19.1406C101.018 18.6927 101.815 18.4688 102.711 18.4688C103.622 18.4688 104.424 18.6901 105.117 19.1328C105.815 19.5703 106.352 20.2083 106.727 21.0469C107.102 21.8802 107.289 22.8516 107.289 23.9609V24.6797ZM105.797 23.9453C105.797 22.5964 105.526 21.5625 104.984 20.8438C104.443 20.1198 103.685 19.7578 102.711 19.7578C101.763 19.7578 101.016 20.1198 100.469 20.8438C99.9271 21.5625 99.6484 22.5625 99.6328 23.8438V24.6797C99.6328 25.987 99.9062 27.0156 100.453 27.7656C101.005 28.5104 101.763 28.8828 102.727 28.8828C103.695 28.8828 104.445 28.5312 104.977 27.8281C105.508 27.1198 105.781 26.1068 105.797 24.7891V23.9453ZM112.891 24.9297C111.604 24.5599 110.667 24.1068 110.078 23.5703C109.495 23.0286 109.203 22.362 109.203 21.5703C109.203 20.6745 109.56 19.9349 110.273 19.3516C110.992 18.763 111.924 18.4688 113.07 18.4688C113.852 18.4688 114.547 18.6198 115.156 18.9219C115.771 19.224 116.245 19.6406 116.578 20.1719C116.917 20.7031 117.086 21.2839 117.086 21.9141H115.578C115.578 21.2266 115.359 20.6875 114.922 20.2969C114.484 19.901 113.867 19.7031 113.07 19.7031C112.331 19.7031 111.753 19.8672 111.336 20.1953C110.924 20.5182 110.719 20.9688 110.719 21.5469C110.719 22.0104 110.914 22.4036 111.305 22.7266C111.701 23.0443 112.37 23.3359 113.312 23.6016C114.26 23.8672 115 24.1615 115.531 24.4844C116.068 24.8021 116.464 25.1745 116.719 25.6016C116.979 26.0286 117.109 26.5312 117.109 27.1094C117.109 28.0312 116.75 28.7708 116.031 29.3281C115.312 29.8802 114.352 30.1562 113.148 30.1562C112.367 30.1562 111.638 30.0078 110.961 29.7109C110.284 29.4089 109.76 28.9974 109.391 28.4766C109.026 27.9557 108.844 27.3646 108.844 26.7031H110.352C110.352 27.3906 110.604 27.9349 111.109 28.3359C111.62 28.7318 112.299 28.9297 113.148 28.9297C113.94 28.9297 114.547 28.7682 114.969 28.4453C115.391 28.1224 115.602 27.6823 115.602 27.125C115.602 26.5677 115.406 26.138 115.016 25.8359C114.625 25.5286 113.917 25.2266 112.891 24.9297Z" fill="white"/>
</svg>
