<svg width="79" height="20" viewBox="0 0 79 20" fill="none" xmlns="http://www.w3.org/2000/svg">
<path d="M12.4316 10.2637C12.321 11.7936 11.7546 12.998 10.7324 13.877C9.7168 14.7559 8.37565 15.1953 6.70898 15.1953C4.88607 15.1953 3.45052 14.5833 2.40234 13.3594C1.36068 12.1289 0.839844 10.4427 0.839844 8.30078V7.43164C0.839844 6.06445 1.08073 4.86003 1.5625 3.81836C2.04427 2.77669 2.73112 1.97917 3.62305 1.42578C4.52148 0.865885 5.56315 0.585938 6.74805 0.585938C8.38867 0.585938 9.71029 1.02539 10.7129 1.9043C11.7155 2.7832 12.2949 4.01693 12.4512 5.60547H9.52148C9.44987 4.6875 9.19271 4.02344 8.75 3.61328C8.3138 3.19661 7.64648 2.98828 6.74805 2.98828C5.77148 2.98828 5.03906 3.33984 4.55078 4.04297C4.06901 4.73958 3.82161 5.82357 3.80859 7.29492V8.36914C3.80859 9.9056 4.03971 11.0286 4.50195 11.7383C4.9707 12.4479 5.70638 12.8027 6.70898 12.8027C7.61393 12.8027 8.28776 12.5977 8.73047 12.1875C9.17969 11.7708 9.43685 11.1296 9.50195 10.2637H12.4316ZM20.293 15C20.1628 14.7461 20.0684 14.4303 20.0098 14.0527C19.3262 14.8145 18.4375 15.1953 17.3438 15.1953C16.3086 15.1953 15.4492 14.8958 14.7656 14.2969C14.0885 13.6979 13.75 12.9427 13.75 12.0312C13.75 10.9115 14.1634 10.0521 14.9902 9.45312C15.8236 8.85417 17.0247 8.55143 18.5938 8.54492H19.8926V7.93945C19.8926 7.45117 19.7656 7.06055 19.5117 6.76758C19.2643 6.47461 18.8704 6.32812 18.3301 6.32812C17.8548 6.32812 17.4805 6.44206 17.207 6.66992C16.9401 6.89779 16.8066 7.21029 16.8066 7.60742H13.9844C13.9844 6.99544 14.1732 6.42904 14.5508 5.9082C14.9284 5.38737 15.4622 4.98047 16.1523 4.6875C16.8424 4.38802 17.6172 4.23828 18.4766 4.23828C19.7786 4.23828 20.8105 4.56706 21.5723 5.22461C22.3405 5.87565 22.7246 6.79362 22.7246 7.97852V12.5586C22.7311 13.5612 22.8711 14.3197 23.1445 14.834V15H20.293ZM17.959 13.0371C18.3757 13.0371 18.7598 12.946 19.1113 12.7637C19.4629 12.5749 19.7233 12.3242 19.8926 12.0117V10.1953H18.8379C17.4251 10.1953 16.6732 10.6836 16.582 11.6602L16.5723 11.8262C16.5723 12.1777 16.696 12.4674 16.9434 12.6953C17.1908 12.9232 17.5293 13.0371 17.959 13.0371ZM28.2715 1.83594V4.43359H30.0781V6.50391H28.2715V11.7773C28.2715 12.168 28.3464 12.4479 28.4961 12.6172C28.6458 12.7865 28.9323 12.8711 29.3555 12.8711C29.668 12.8711 29.9447 12.8483 30.1855 12.8027V14.9414C29.6322 15.1107 29.0625 15.1953 28.4766 15.1953C26.4974 15.1953 25.4883 14.196 25.4492 12.1973V6.50391H23.9062V4.43359H25.4492V1.83594H28.2715ZM31.2598 11.1719C31.2598 10.5143 31.4421 9.9056 31.8066 9.3457C32.1777 8.78581 32.8548 8.16406 33.8379 7.48047C33.4147 6.91406 33.0827 6.38346 32.8418 5.88867C32.6009 5.38737 32.4805 4.86654 32.4805 4.32617C32.4805 3.2194 32.8288 2.32096 33.5254 1.63086C34.2285 0.934245 35.1725 0.585938 36.3574 0.585938C37.4186 0.585938 38.2878 0.901693 38.9648 1.5332C39.6484 2.16471 39.9902 2.95247 39.9902 3.89648C39.9902 5.0293 39.4173 6.02865 38.2715 6.89453L37.1777 7.68555L39.6289 10.5371C40.013 9.7819 40.2051 8.94857 40.2051 8.03711H42.6074C42.6074 9.88607 42.181 11.3835 41.3281 12.5293L43.457 15H40.2539L39.5215 14.1602C38.4733 14.8503 37.2689 15.1953 35.9082 15.1953C34.502 15.1953 33.3757 14.8275 32.5293 14.0918C31.6829 13.3496 31.2598 12.3763 31.2598 11.1719ZM36.0449 12.9297C36.722 12.9297 37.3633 12.7409 37.9688 12.3633L35.166 9.12109L34.9609 9.26758C34.3815 9.76237 34.0918 10.3451 34.0918 11.0156C34.0918 11.582 34.2708 12.0443 34.6289 12.4023C34.9935 12.7539 35.4655 12.9297 36.0449 12.9297ZM35.0098 4.28711C35.0098 4.77539 35.2962 5.39062 35.8691 6.13281L36.6211 5.63477C37.0052 5.38737 37.2689 5.14648 37.4121 4.91211C37.5618 4.67773 37.6367 4.39779 37.6367 4.07227C37.6367 3.74674 37.5163 3.46354 37.2754 3.22266C37.0345 2.98177 36.7253 2.86133 36.3477 2.86133C35.944 2.86133 35.6185 2.99154 35.3711 3.25195C35.1302 3.51237 35.0098 3.85742 35.0098 4.28711ZM44.9609 15V0.78125H49.3359C50.5859 0.78125 51.7025 1.06445 52.6855 1.63086C53.6751 2.19076 54.4466 2.99154 55 4.0332C55.5534 5.06836 55.8301 6.24674 55.8301 7.56836V8.22266C55.8301 9.54427 55.5566 10.7194 55.0098 11.748C54.4694 12.7767 53.7044 13.5742 52.7148 14.1406C51.7253 14.707 50.6087 14.9935 49.3652 15H44.9609ZM47.8906 3.1543V12.6465H49.3066C50.4525 12.6465 51.3281 12.2721 51.9336 11.5234C52.5391 10.7747 52.8483 9.70378 52.8613 8.31055V7.55859C52.8613 6.11328 52.5618 5.01953 51.9629 4.27734C51.3639 3.52865 50.4883 3.1543 49.3359 3.1543H47.8906ZM57.3438 9.61914C57.3438 8.57096 57.5456 7.63672 57.9492 6.81641C58.3529 5.99609 58.9323 5.36133 59.6875 4.91211C60.4492 4.46289 61.3314 4.23828 62.334 4.23828C63.7598 4.23828 64.9219 4.67448 65.8203 5.54688C66.7253 6.41927 67.2298 7.60417 67.334 9.10156L67.3535 9.82422C67.3535 11.4453 66.901 12.7474 65.9961 13.7305C65.0911 14.707 63.877 15.1953 62.3535 15.1953C60.8301 15.1953 59.6126 14.707 58.7012 13.7305C57.7962 12.7539 57.3438 11.4258 57.3438 9.74609V9.61914ZM60.166 9.82422C60.166 10.8268 60.3548 11.5951 60.7324 12.1289C61.11 12.6562 61.6504 12.9199 62.3535 12.9199C63.0371 12.9199 63.571 12.6595 63.9551 12.1387C64.3392 11.6113 64.5312 10.7715 64.5312 9.61914C64.5312 8.63607 64.3392 7.87435 63.9551 7.33398C63.571 6.79362 63.0306 6.52344 62.334 6.52344C61.6439 6.52344 61.11 6.79362 60.7324 7.33398C60.3548 7.86784 60.166 8.69792 60.166 9.82422ZM68.6816 9.63867C68.6816 8.01758 69.0658 6.71224 69.834 5.72266C70.6087 4.73307 71.6504 4.23828 72.959 4.23828C74.1178 4.23828 75.0195 4.63542 75.6641 5.42969L75.7812 4.43359H78.3398V14.6484C78.3398 15.5729 78.1283 16.377 77.7051 17.0605C77.2884 17.7441 76.6992 18.265 75.9375 18.623C75.1758 18.9811 74.2839 19.1602 73.2617 19.1602C72.487 19.1602 71.7318 19.0039 70.9961 18.6914C70.2604 18.3854 69.7038 17.9883 69.3262 17.5L70.5762 15.7812C71.2793 16.569 72.1322 16.9629 73.1348 16.9629C73.8835 16.9629 74.4661 16.7611 74.8828 16.3574C75.2995 15.9603 75.5078 15.3939 75.5078 14.6582V14.0918C74.8568 14.8275 74.0007 15.1953 72.9395 15.1953C71.6699 15.1953 70.6413 14.7005 69.8535 13.7109C69.0723 12.7148 68.6816 11.3965 68.6816 9.75586V9.63867ZM71.5039 9.84375C71.5039 10.8008 71.696 11.5527 72.0801 12.0996C72.4642 12.64 72.9915 12.9102 73.6621 12.9102C74.5215 12.9102 75.1367 12.5879 75.5078 11.9434V7.5C75.1302 6.85547 74.5215 6.5332 73.6816 6.5332C73.0046 6.5332 72.4707 6.8099 72.0801 7.36328C71.696 7.91667 71.5039 8.74349 71.5039 9.84375Z" fill="white"/>
</svg>
