<svg width="74" height="74" viewBox="0 0 74 74" fill="none" xmlns="http://www.w3.org/2000/svg">
<g filter="url(#filter0_d)">
<rect x="4" width="66" height="66" rx="33" fill="#786960"/>
<rect x="8" y="4" width="58" height="57" rx="28.5" fill="#8A8787"/>
<path d="M44.0125 39.7321C48.8011 32.218 48.1991 33.1555 48.3371 32.9596C50.0805 30.5006 51.002 27.6064 51.002 24.5898C51.002 16.59 44.5103 10 36.5 10C28.5158 10 21.998 16.577 21.998 24.5898C21.998 27.6045 22.9388 30.5744 24.7394 33.0665L28.9873 39.7322C24.4455 40.4301 16.7246 42.51 16.7246 47.0898C16.7246 48.7593 17.8143 51.1385 23.0054 52.9925C26.6302 54.287 31.4226 55 36.5 55C45.9944 55 56.2754 52.3218 56.2754 47.0898C56.2754 42.5092 48.5635 40.4315 44.0125 39.7321ZM26.9418 31.6163C26.9273 31.5936 26.9122 31.5714 26.8964 31.5496C25.3981 29.4884 24.6348 27.0456 24.6348 24.5898C24.6348 17.9965 29.9439 12.6367 36.5 12.6367C43.0425 12.6367 48.3652 17.9988 48.3652 24.5898C48.3652 27.0496 47.6163 29.4095 46.1991 31.4164C46.0721 31.5839 46.7347 30.5545 36.5 46.6143L26.9418 31.6163ZM36.5 52.3633C26.1294 52.3633 19.3613 49.315 19.3613 47.0898C19.3613 45.5943 22.839 43.1352 30.5452 42.1767L35.3882 49.776C35.6302 50.1558 36.0495 50.3857 36.4999 50.3857C36.9504 50.3857 37.3697 50.1557 37.6116 49.776L42.4545 42.1767C50.1609 43.1352 53.6387 45.5943 53.6387 47.0898C53.6387 49.2961 46.9315 52.3633 36.5 52.3633Z" fill="white"/>
<path d="M36.5 17.998C32.8653 17.998 29.9082 20.9551 29.9082 24.5898C29.9082 28.2246 32.8653 31.1816 36.5 31.1816C40.1347 31.1816 43.0918 28.2246 43.0918 24.5898C43.0918 20.9551 40.1347 17.998 36.5 17.998ZM36.5 28.5449C34.3192 28.5449 32.5449 26.7707 32.5449 24.5898C32.5449 22.409 34.3192 20.6348 36.5 20.6348C38.6808 20.6348 40.4551 22.409 40.4551 24.5898C40.4551 26.7707 38.6808 28.5449 36.5 28.5449Z" fill="white"/>
</g>
<defs>
<filter id="filter0_d" x="0" y="0" width="74" height="74" filterUnits="userSpaceOnUse" color-interpolation-filters="sRGB">
<feFlood flood-opacity="0" result="BackgroundImageFix"/>
<feColorMatrix in="SourceAlpha" type="matrix" values="0 0 0 0 0 0 0 0 0 0 0 0 0 0 0 0 0 0 127 0"/>
<feOffset dy="4"/>
<feGaussianBlur stdDeviation="2"/>
<feColorMatrix type="matrix" values="0 0 0 0 0 0 0 0 0 0 0 0 0 0 0 0 0 0 0.25 0"/>
<feBlend mode="normal" in2="BackgroundImageFix" result="effect1_dropShadow"/>
<feBlend mode="normal" in="SourceGraphic" in2="effect1_dropShadow" result="shape"/>
</filter>
</defs>
</svg>
