<svg width="23" height="22" viewBox="0 0 23 22" fill="none" xmlns="http://www.w3.org/2000/svg">
<g clip-path="url(#clip0)" filter="url(#filter0_d)">
<path d="M14.0308 7.41982C13.3558 6.43704 12.2062 5.85022 10.9556 5.85022C9.70511 5.85022 8.55544 6.43704 7.88058 7.41982L6.25415 9.78793C5.9843 10.1809 5.85978 10.6347 5.894 11.1003C5.92822 11.566 6.11808 11.9997 6.44297 12.3546C6.7681 12.7094 7.19771 12.9519 7.68535 13.0559C8.17298 13.1599 8.67286 13.1155 9.13085 12.9277L9.16072 12.9153C10.3133 12.4516 11.6306 12.4558 12.7803 12.9277C13.0768 13.0493 13.3909 13.1108 13.7079 13.1108C13.8803 13.1108 14.0536 13.0926 14.2254 13.056C14.713 12.9521 15.1427 12.7097 15.4679 12.3548C15.7929 12 15.9829 11.5662 16.0172 11.1005C16.0515 10.6347 15.927 10.1809 15.6572 9.78783L14.0308 7.41982ZM14.7997 11.8214C14.386 12.2728 13.7167 12.4155 13.1342 12.1765C12.4419 11.8922 11.6987 11.7502 10.9553 11.7502C10.2125 11.7502 9.46948 11.8921 8.77757 12.176L8.75789 12.1841C8.17984 12.4123 7.52044 12.2678 7.11131 11.8214C6.69806 11.3699 6.65103 10.7308 6.99435 10.2308L8.6209 7.86266C9.13337 7.11647 10.0061 6.67096 10.9556 6.67096C11.9051 6.67096 12.778 7.11647 13.2905 7.86266L14.9169 10.2307C15.2603 10.7309 15.2132 11.3701 14.7997 11.8214Z" fill="white"/>
<path d="M6.69223 7.41662C7.17609 7.24316 7.54367 6.87925 7.72735 6.39187C7.90198 5.9281 7.88768 5.40451 7.68684 4.91744C7.48588 4.4307 7.12035 4.03336 6.65767 3.79848C6.17141 3.55186 5.63731 3.5117 5.15426 3.68548C4.18243 4.03422 3.73645 5.1551 4.16022 6.18466C4.49874 7.00412 5.28827 7.52141 6.08649 7.52141C6.29031 7.52141 6.4947 7.48765 6.69223 7.41662ZM4.98077 5.88986C4.73106 5.28317 4.95044 4.63781 5.47011 4.45132C5.56396 4.41757 5.66318 4.4008 5.76446 4.4008C5.92078 4.4008 6.08226 4.44064 6.23767 4.51957C6.51713 4.66131 6.74041 4.9074 6.86629 5.21235C6.99206 5.51751 7.00328 5.83966 6.89777 6.11961C6.80106 6.37617 6.61601 6.5648 6.37683 6.65057L6.37637 6.65078C5.85738 6.83749 5.23128 6.49601 4.98077 5.88986Z" fill="white"/>
<path d="M9.84804 5.56136C11.0629 5.56136 12.0514 4.51033 12.0514 3.21844C12.0514 1.92624 11.0629 0.875 9.84804 0.875C8.63325 0.875 7.64494 1.92624 7.64494 3.21844C7.64494 4.51033 8.63325 5.56136 9.84804 5.56136ZM9.84804 1.69563C10.5781 1.69563 11.1721 2.3788 11.1721 3.21844C11.1721 4.05777 10.5781 4.74072 9.84804 4.74072C9.11802 4.74072 8.52419 4.05777 8.52419 3.21844C8.52419 2.3788 9.11802 1.69563 9.84804 1.69563Z" fill="white"/>
<path d="M13.6532 6.13698H13.6533C13.8402 6.19487 14.0309 6.22253 14.2207 6.22253C15.1067 6.22253 15.9702 5.62065 16.2997 4.69566C16.4894 4.16321 16.4769 3.6002 16.2645 3.11047C16.0423 2.59788 15.6304 2.22575 15.1047 2.06255C14.5789 1.89955 14.01 1.96748 13.5032 2.25395C13.019 2.52771 12.648 2.97162 12.4586 3.50407C12.0586 4.6273 12.5945 5.80843 13.6532 6.13698ZM13.293 3.76288C13.4167 3.41521 13.6531 3.12874 13.9588 2.95592C14.2416 2.79602 14.5501 2.75532 14.8274 2.84131C15.1046 2.9274 15.3254 3.13226 15.4495 3.4183C15.5835 3.72742 15.5892 4.08908 15.4653 4.43675C15.2182 5.1306 14.5297 5.54396 13.9306 5.35821C13.332 5.17236 13.0459 4.45673 13.293 3.76288Z" fill="white"/>
<path d="M18.2932 5.86352L18.2929 5.8632C17.455 5.28556 16.202 5.53593 15.4995 6.42161C14.7976 7.30771 14.9074 8.49898 15.7439 9.07704C16.049 9.288 16.4095 9.38883 16.7785 9.38883C17.4215 9.38883 18.0905 9.08249 18.5377 8.51917C19.2395 7.63306 19.1299 6.44179 18.2932 5.86352ZM17.831 8.03093C17.4161 8.55356 16.7147 8.72692 16.2671 8.41748C15.8199 8.10848 15.7927 7.43194 16.2064 6.90963C16.4814 6.56292 16.8831 6.37002 17.2533 6.37002C17.4405 6.37002 17.6197 6.41936 17.7703 6.52329C18.2172 6.83262 18.2443 7.50895 17.831 8.03093Z" fill="white"/>
</g>
<defs>
<filter id="filter0_d" x="0" y="0" width="23" height="22" filterUnits="userSpaceOnUse" color-interpolation-filters="sRGB">
<feFlood flood-opacity="0" result="BackgroundImageFix"/>
<feColorMatrix in="SourceAlpha" type="matrix" values="0 0 0 0 0 0 0 0 0 0 0 0 0 0 0 0 0 0 127 0"/>
<feOffset dy="4"/>
<feGaussianBlur stdDeviation="2"/>
<feColorMatrix type="matrix" values="0 0 0 0 0 0 0 0 0 0 0 0 0 0 0 0 0 0 0.25 0"/>
<feBlend mode="normal" in2="BackgroundImageFix" result="effect1_dropShadow"/>
<feBlend mode="normal" in="SourceGraphic" in2="effect1_dropShadow" result="shape"/>
</filter>
<clipPath id="clip0">
<rect width="15" height="14" fill="white" transform="translate(4)"/>
</clipPath>
</defs>
</svg>
